<svg width="16" height="16" viewBox="0 0 16 16" fill="none" xmlns="http://www.w3.org/2000/svg">
<path d="M7.9935 1.33333C4.3135 1.33333 1.3335 4.31999 1.3335 8C1.3335 11.68 4.3135 14.6667 7.9935 14.6667C11.6802 14.6667 14.6668 11.68 14.6668 8C14.6668 4.31999 11.6802 1.33333 7.9935 1.33333ZM12.6135 5.33333H10.6468C10.4335 4.49999 10.1268 3.7 9.72683 2.96C10.9535 3.38 11.9735 4.23333 12.6135 5.33333ZM8.00016 2.69333C8.5535 3.49333 8.98683 4.38 9.2735 5.33333H6.72683C7.0135 4.38 7.44683 3.49333 8.00016 2.69333ZM2.84016 9.33333C2.7335 8.90666 2.66683 8.46 2.66683 8C2.66683 7.54 2.7335 7.09333 2.84016 6.66666H5.0935C5.04016 7.10666 5.00016 7.54666 5.00016 8C5.00016 8.45333 5.04016 8.89333 5.0935 9.33333H2.84016ZM3.38683 10.6667H5.3535C5.56683 11.5 5.8735 12.3 6.2735 13.04C5.04683 12.62 4.02683 11.7733 3.38683 10.6667ZM5.3535 5.33333H3.38683C4.02683 4.22666 5.04683 3.38 6.2735 2.96C5.8735 3.7 5.56683 4.49999 5.3535 5.33333ZM8.00016 13.3067C7.44683 12.5067 7.0135 11.62 6.72683 10.6667H9.2735C8.98683 11.62 8.5535 12.5067 8.00016 13.3067ZM9.56016 9.33333H6.44016C6.38016 8.89333 6.3335 8.45333 6.3335 8C6.3335 7.54666 6.38016 7.1 6.44016 6.66666H9.56016C9.62016 7.1 9.66683 7.54666 9.66683 8C9.66683 8.45333 9.62016 8.89333 9.56016 9.33333ZM9.72683 13.04C10.1268 12.3 10.4335 11.5 10.6468 10.6667H12.6135C11.9735 11.7667 10.9535 12.62 9.72683 13.04ZM10.9068 9.33333C10.9602 8.89333 11.0002 8.45333 11.0002 8C11.0002 7.54666 10.9602 7.10666 10.9068 6.66666H13.1602C13.2668 7.09333 13.3335 7.54 13.3335 8C13.3335 8.46 13.2668 8.90666 13.1602 9.33333H10.9068Z" fill="#101828"/>
</svg>
