<svg width="152" height="40" viewBox="0 0 152 40" fill="none" xmlns="http://www.w3.org/2000/svg">
<path d="M149.229 23.9163C149.061 22.1559 148.365 19.5195 146.947 17.8617C145.948 16.729 144.136 15.0313 141.186 13.3964L136.798 10.9683C135.659 10.3435 134.484 9.69578 134.01 9.1879C133.679 8.8398 133.542 8.34904 133.397 7.48166C133.445 7.19063 133.668 6.59716 133.779 6.44023C134.019 6.18915 134.983 5.76972 135.36 5.74974C135.668 5.75545 136.647 6.16632 137.417 6.77406C138.436 7.57582 140.239 9.8042 140.753 11.4705C140.81 11.6559 140.898 11.8329 141.012 11.9898C141.663 12.8857 142.673 13.2709 143.58 12.977C145.209 12.4463 145.204 10.4148 145.204 9.65298C145.204 9.56738 145.198 9.47892 145.184 9.39618L144.171 2.68251C144.165 2.65113 144.162 2.6226 144.154 2.59122C143.999 1.83511 143.48 0.936337 142.487 0.670986C142.094 0.565416 141.072 0.439874 140.111 1.52696L140.039 1.60685C139.951 1.70956 139.782 1.89788 139.634 2.04339C139.446 1.94353 139.223 1.79516 139.118 1.72669C138.961 1.62112 138.824 1.52981 138.667 1.45277C137.386 0.805085 135.99 0.736607 134.923 0.75658C132.655 0.793672 130.672 1.46419 129.003 2.73388C128.401 1.54979 127.288 0.713789 126.047 0.648164C125.277 0.605366 124.623 0.810796 124.087 1.13607C123.727 0.987697 123.271 0.887835 122.683 0.887835C122.677 0.887835 122.674 0.887835 122.669 0.887835L119.014 0.899242C117.085 0.904948 116.546 1.9207 116.394 2.52559C116.275 3.00779 116.178 4.22327 117.872 5.1306C118.044 5.2219 118.155 5.29894 118.226 5.35601L118.238 9.31059L115.493 3.78957C114.343 1.19598 112.865 0.904953 112.186 0.922072L107.621 0.933488C107.304 0.933488 106.993 1.02193 106.722 1.18457C106.559 1.28158 106.417 1.39286 106.285 1.50984C105.646 0.833621 104.742 0.496941 103.923 0.468409C103.9 0.468409 103.877 0.468409 103.857 0.468409C103.857 0.468409 94.2961 0.496937 93.6285 0.49979C92.6526 0.50835 91.8652 0.819355 91.3716 1.35862C90.9949 0.850741 90.4585 0.528327 89.8422 0.459849C88.972 0.362839 88.2501 0.78797 87.7565 1.22451C87.4084 1.02479 86.9975 0.822206 86.6181 0.713783C86.541 0.690957 86.464 0.668134 86.3841 0.645308C85.8962 0.49694 85.2143 0.302922 84.4353 0.300069C82.7291 0.302922 80.9144 0.944899 79.7617 1.91215C79.3737 1.09612 78.4721 0.628186 77.2252 0.642452L73.5731 0.653867C71.4132 0.656721 70.988 2.01201 70.9081 2.42858C70.7541 3.23319 71.085 4.28889 72.4432 4.89663C72.4517 4.93087 72.4603 4.96796 72.4603 4.98222L72.4631 5.89526L70.5058 3.07342C69.3189 1.11895 67.7125 0.753732 67.4015 0.69952C67.3016 0.682401 67.1932 0.668136 67.0962 0.673842L62.4797 0.688105C62.3513 0.688105 62.2229 0.702369 62.1002 0.730902C61.7378 0.810792 61.3498 0.976286 61.0131 1.22737C60.277 0.571126 59.3211 0.334301 58.6991 0.311476C58.6763 0.311476 58.6592 0.311476 58.6335 0.311476C58.6335 0.311476 44.8381 0.351428 44.1105 0.354281C42.9036 0.359988 41.4713 1.15318 41.166 2.46852C40.9976 3.19895 41.1802 4.15193 42.1218 4.8253C42.119 4.83956 42.1133 4.85383 42.1076 4.87095C41.7652 5.99227 41.1489 8.00665 40.5697 9.88694L39.2515 5.10777C40.2957 4.13481 40.3642 3.18469 40.2187 2.53701C39.9534 1.34721 38.8349 0.688108 37.8762 0.468409C37.7449 0.437023 37.6108 0.419903 37.4767 0.422756L31.853 0.439875C31.7246 0.439875 31.5962 0.454139 31.4707 0.482671C30.6119 0.676692 29.9385 1.16745 29.5761 1.80658C29.3678 1.38145 29.131 1.11039 29.054 1.0305C28.723 0.679549 28.2665 0.479821 27.7843 0.476968L20.6683 0.425612C20.617 0.425612 20.5656 0.428462 20.5143 0.431315C19.4329 0.516912 18.5912 1.00767 18.0091 1.37288C17.6211 1.15889 17.079 0.902101 16.3286 0.665283C14.7992 0.183086 13.9404 -0.0109392 12.5908 0.00047377C10.1513 0.0261529 8.14547 0.83077 6.28516 2.52845C4.35637 4.28889 3.38056 6.51441 3.38912 9.14795C3.39483 11.305 4.68449 14.3523 6.2823 15.9558C7.10118 16.7575 8.18541 17.5422 9.51502 18.3011L13.4924 20.5324C15.5639 21.6936 17.1246 22.7208 18.0719 23.3828C18.8394 23.9163 19.5384 25.4628 19.5727 26.3558C19.7325 30.3589 17.6753 31.6657 16.5739 32.3676C15.1017 33.3063 13.8576 33.506 13.1843 33.3776C8.96149 32.593 8.18256 29.5029 8.09982 29.1006C8.11979 28.9466 8.1312 28.7953 8.13976 28.647C8.19968 27.8081 8.25104 27.7939 8.58487 27.7025C10.9416 27.0663 11.9403 24.9634 12.1571 23.8222C12.1685 23.7622 12.1771 23.7023 12.1828 23.6424C12.3597 21.5709 11.6321 20.307 10.9901 19.6108C9.62344 18.1242 7.6861 18.1014 7.44357 18.0871C1.75707 18.1699 0.0993398 22.6438 0.0194492 24.9749C-0.231636 30.1991 1.99674 33.3634 3.90841 35.101C5.88 36.89 7.88297 37.532 8.21395 37.629C9.92304 38.1625 11.5808 38.4307 13.1443 38.4307C13.1757 38.4307 13.21 38.4307 13.2413 38.4307C16.1716 38.4136 18.6425 37.6318 21.2475 35.8913C23.0879 34.6616 25.8327 32.1593 26.6801 27.8481C26.7315 28.0535 26.7685 28.219 26.7942 28.336C27.1252 29.9167 27.8613 30.784 28.9798 30.9182C30.0812 31.0494 31.0912 30.3389 31.7446 28.9694C31.7845 28.8866 31.8159 28.8039 31.8416 28.7183C32.5264 26.4243 33.9815 21.5966 35.0344 18.2041C36.2042 21.9961 37.2057 25.3743 37.297 25.9507C37.5424 27.5799 38.5867 27.9422 39.0232 28.0193C39.9619 28.1905 40.8664 27.674 41.4427 26.6411C41.4998 26.5384 41.5455 26.43 41.5826 26.3187C41.7509 25.7966 44.4358 17.4024 46.3218 11.4134L46.3503 20.5695C46.3503 20.6123 46.3532 20.6551 46.356 20.6979C46.3845 21.0631 46.1563 21.3341 46.0907 21.4055C46.0878 21.4083 46.0878 21.4083 46.0878 21.4083C46.085 21.414 46.0793 21.4169 46.0764 21.4197C46.0736 21.4226 46.0707 21.4254 46.0678 21.4283C45.5514 21.8962 43.9793 23.3171 44.7183 24.8721C44.9151 25.2859 45.5486 26.2189 47.192 25.9678C47.9367 25.8508 51.0895 25.3144 54.1339 24.6981C57.8032 23.9562 59.7149 23.5368 60.6507 22.8178C61.053 23.1317 61.5809 23.3342 62.1943 23.3856C62.2428 23.3885 62.2942 23.3913 62.3427 23.3913C62.4055 23.3913 62.4711 23.3885 62.5339 23.3799L67.5327 22.8349C67.6155 22.8264 67.6954 22.8121 67.7724 22.7921C68.9594 22.4925 69.7041 21.7279 69.7668 20.7435C69.8125 20.0359 69.53 19.0572 67.9293 18.4324C67.6241 18.3125 67.4871 18.1556 67.4272 18.0529L67.4101 12.1952L74.1095 21.6908C74.1523 21.7507 74.1979 21.8078 74.2493 21.8648C75.4419 23.1716 76.4891 23.1345 77.1567 22.8749C77.8187 22.6181 78.2124 22.0959 78.415 21.5253C78.7431 22.5125 79.4507 23.1773 80.3267 23.2857C80.9144 23.3571 81.7076 23.2201 82.4238 22.2957C82.4523 22.3099 82.4837 22.3242 82.5208 22.3385C82.8803 22.5097 84.6607 23.3228 85.939 23.3228C86.0075 23.3228 86.0759 23.32 86.1416 23.3143C87.9819 23.1688 89.2744 22.8492 90.7381 21.6252C90.761 21.7193 90.7866 21.8135 90.8237 21.9105C90.9921 22.347 91.5627 23.3542 93.3203 23.2972C96.3847 23.1944 99.3463 23.5768 101.503 23.8564C102.699 24.0105 103.715 24.1417 104.545 24.1417C104.95 24.1417 105.304 24.1046 105.621 24.0304C105.989 24.8893 106.933 25.4371 108.351 25.5883L111.601 26.1903C111.644 26.1989 111.687 26.2046 111.729 26.2103C113.635 26.4215 114.277 25.5027 114.486 24.9378C114.648 24.5012 114.868 23.377 113.413 22.3784C113.302 22.3014 113.242 22.2386 113.213 22.2015L113.196 16.0756L119.459 28.0877C119.53 28.2247 119.619 28.3502 119.721 28.4615C120.532 29.346 121.273 29.6142 121.873 29.6142C122.158 29.6142 122.412 29.5543 122.626 29.4687C122.692 29.443 122.746 29.4088 122.806 29.3774C124.135 34.4647 128.173 37.0041 130.584 37.7003C132.296 38.231 133.968 38.5021 135.554 38.5021C135.568 38.5021 135.585 38.5021 135.6 38.5021C138.376 38.4935 141.066 37.6432 143.603 35.9684C148.873 32.4931 149.572 27.4971 149.229 23.9163ZM18.8223 13.0227L14.4625 10.6088C13.3127 9.97824 12.1257 9.32771 11.6464 8.81413C11.2327 8.37758 11.0358 7.88111 11.0329 7.25055C11.0301 6.26904 11.1585 6.0636 11.4923 5.7583C11.8147 5.46442 11.8347 5.4473 12.6707 5.40451C12.7363 5.40165 12.7962 5.3988 12.8562 5.3988C13.3298 5.3988 13.6722 5.55573 15.0474 6.64852C15.9205 7.34186 17.3643 9.61588 17.8893 10.9227C17.9692 11.1167 18.0804 11.2964 18.2231 11.4534C18.5712 11.8357 19.5128 12.7031 20.7397 12.5633C21.3046 12.4977 21.8125 12.2237 22.1863 11.79C22.6199 13.2994 23.0622 14.8516 23.4959 16.3752C22.4373 15.3766 20.9194 14.1868 18.8223 13.0227ZM61.7207 14.3465C61.6808 14.3037 61.6437 14.2638 61.598 14.2239C61.0987 13.7759 60.431 13.6076 59.7605 13.7588L59.7491 9.93259C60.5537 10.4547 61.2214 10.4861 61.7093 10.372L61.7207 14.3465ZM54.0055 19.5708C53.9799 17.5736 53.9656 15.4251 53.9827 14.9457C53.9856 14.9343 53.9884 14.9229 53.9856 14.9229C53.9856 14.9229 53.9799 14.9086 54.1197 14.9029C54.3308 14.8858 54.4449 15.1055 54.4735 15.1768C54.6589 17.2626 55.5691 18.0215 56.3538 18.2812C55.5064 19.043 54.5591 19.4567 54.0055 19.5708ZM54.3736 9.41045C54.3308 9.4504 54.2509 9.51031 54.1168 9.55311C54.1026 8.52595 54.0712 6.52868 54.0655 5.69269L55.3494 5.64418C55.7746 5.7526 56.1883 5.96945 56.5735 6.24621C55.2353 6.66279 54.5163 8.06087 54.3736 9.41045ZM92.5528 13.2167C92.3531 12.8543 92.1191 12.5005 91.8509 12.1695L91.7082 11.9955C91.0805 11.2308 90.2274 10.1922 88.5725 9.20216L86.6181 7.78126C86.5724 7.74702 86.521 7.71562 86.4725 7.68424C85.6965 7.23057 85.1772 6.84825 84.869 6.4973C84.7948 6.41456 84.7149 6.32895 84.635 6.24336C84.5238 6.12637 84.3669 5.95803 84.2898 5.85247C84.2984 5.63562 84.3383 5.4901 84.364 5.41592C84.4524 5.356 84.598 5.29608 84.6721 5.29608C84.6778 5.29608 84.6807 5.29608 84.6836 5.29608C85.0745 5.29608 85.1458 5.34744 85.4454 5.55573L85.4882 5.58712C87.2829 6.83113 88.3899 8.3034 88.9206 9.011C89.0233 9.14796 89.1089 9.25923 89.1746 9.34198C90.216 10.6202 91.2831 10.3092 91.694 10.118C91.9194 10.0125 92.2903 9.77852 92.5385 9.33056L92.5528 13.2167ZM78.5662 10.7772C78.8059 11.1395 79.0712 11.4619 79.3537 11.7244C79.4308 11.7986 79.5021 11.8642 79.5648 11.927C79.8958 12.2466 80.2097 12.549 80.9116 12.9799L83.3454 14.8287C83.3968 14.8687 83.4538 14.9058 83.508 14.94C84.4097 15.4764 85.3826 16.0756 85.7421 16.418C86.3812 17.0486 86.3784 17.2511 86.3784 17.3995C86.3784 17.5051 86.3784 17.6021 86.3812 17.6877C86.3812 17.7077 86.3841 17.7305 86.3356 17.7676C85.8933 18.1071 85.5281 18.2755 85.3427 18.2241C85.1287 18.167 85.1315 18.1328 84.966 18.1556C84.7149 18.0757 83.8162 17.6905 82.5864 16.0699C82.5693 16.0471 82.5493 16.0214 82.5322 16.0014C82.5265 15.9957 82.0529 15.4251 81.2597 14.2581C81.2226 14.2039 81.1826 14.1525 81.1398 14.1012C80.0984 12.8857 79.1255 12.9 78.5748 13.054L78.5662 10.7772ZM105.932 13.9699C105.464 13.9728 105.07 14.1326 104.725 14.4179L104.71 9.97254C105.555 10.4376 106.268 10.1922 106.585 10.0296C106.819 9.90976 107.004 9.75854 107.153 9.58735L107.167 14.3152C106.805 14.0869 106.377 13.9671 105.932 13.9699ZM99.7772 8.09796C99.7544 7.17637 99.7258 6.09214 99.7116 5.57L100.702 5.56714C101.258 5.70124 101.715 5.96945 102.083 6.28901C101.361 6.30898 100.291 6.61428 99.7772 8.09796ZM101.829 17.8817C102.174 17.916 102.508 17.8874 102.822 17.8018C102.482 18.6692 101.911 18.829 100.091 18.6606C100.005 18.6521 99.9227 18.6464 99.84 18.6378C99.8314 17.8988 99.8228 17.1313 99.8171 16.4437C100.402 17.6306 101.443 17.8418 101.829 17.8817ZM138.944 32.4275C138.835 32.496 138.738 32.5588 138.658 32.613C138.09 32.9925 136.222 33.5802 135.571 33.4518C131.753 32.6957 130.592 29.8539 130.469 29.1577C130.489 29.0093 130.498 28.8638 130.509 28.7183C130.566 27.8794 130.621 27.8652 130.954 27.7739C133.314 27.1376 134.31 25.0348 134.524 23.8963C134.535 23.8364 134.544 23.7765 134.55 23.7166C134.724 21.6451 133.996 20.3811 133.354 19.6821C133.194 19.5081 133.026 19.3568 132.855 19.2199L135.856 20.9033C137.48 21.8135 139.063 22.7978 140.439 23.7565C141.283 24.3414 141.897 25.6197 141.939 26.4414C142.142 30.4046 140.062 31.7199 138.944 32.4275ZM124.01 9.5046C124.13 9.53028 124.252 9.5474 124.375 9.5474C124.498 9.5474 124.623 9.53314 124.749 9.50746C125.114 9.42757 125.445 9.33056 125.762 9.22214C125.759 9.322 125.75 9.41901 125.75 9.52172C125.756 11.6788 127.046 14.726 128.643 16.3296C129.405 17.0714 130.395 17.8047 131.599 18.5151C130.715 18.1756 129.95 18.1642 129.805 18.1613C127 18.2013 125.177 19.3083 124.038 20.7007L124.01 9.5046ZM32.3438 2.0006C32.3495 2.00345 32.3552 2.0063 32.3609 2.00915C32.3552 2.0063 32.3466 2.0063 32.3409 2.0063L32.3438 2.0006ZM28.8343 5.33603C29.0683 5.14201 29.4649 4.80818 29.7074 4.27463C30.124 4.85954 30.7859 5.2276 31.4051 5.40451L32.2097 8.34334C31.7731 9.90977 31.3109 11.5304 30.8972 12.9313C29.9043 9.49034 29.0369 6.42882 28.7744 5.38453C28.7972 5.36741 28.8143 5.35315 28.8343 5.33603Z" fill="#2B2422"/>
<path d="M148.448 23.9906C148.277 22.213 147.57 19.7935 146.36 18.3783C145.401 17.2912 143.658 15.662 140.808 14.0813L136.422 11.6561C135.175 10.9713 134 10.3236 133.446 9.73013C132.918 9.1766 132.764 8.45759 132.607 7.5046C132.61 7.18219 132.961 6.18355 133.198 5.92105C133.577 5.49592 134.799 4.99375 135.338 4.97378C135.874 4.95666 137.075 5.51019 137.906 6.16358C139.027 7.04808 140.942 9.41056 141.504 11.2452C141.535 11.3479 141.584 11.4449 141.646 11.5334C142.003 12.0241 142.634 12.4664 143.338 12.2353C144.425 11.8786 144.423 10.3778 144.42 9.65594C144.42 9.60743 144.417 9.55893 144.408 9.51328L143.395 2.79961C143.393 2.78249 143.39 2.76537 143.387 2.74825C143.278 2.22326 142.933 1.5984 142.286 1.4272C141.9 1.32449 141.313 1.35017 140.699 2.0435L140.628 2.12625C140.457 2.32027 140.017 2.81958 139.792 2.91659C139.447 2.88521 138.956 2.55709 138.688 2.37734C138.545 2.28318 138.434 2.20614 138.32 2.14907C137.192 1.57843 135.92 1.52422 134.944 1.53848C132.453 1.57843 130.336 2.43726 128.644 4.07216C128.393 2.63128 127.289 1.49568 126.013 1.4272C125.24 1.38441 124.618 1.66403 124.145 2.05492C123.811 1.80384 123.317 1.66973 122.689 1.66973C122.687 1.66973 122.681 1.66973 122.678 1.66973L119.023 1.68115C117.696 1.684 117.28 2.24609 117.163 2.71402C117.049 3.17339 117.143 3.84675 118.25 4.43737C118.858 4.76264 118.997 5.01943 119.026 5.08791C119.02 5.13071 119.017 5.17636 119.017 5.21916L119.04 12.6575L114.792 4.11781C113.805 1.87801 112.626 1.68685 112.21 1.70111L107.627 1.71253C107.45 1.71253 107.279 1.76104 107.128 1.85234C106.922 1.97503 106.306 2.40587 106.269 3.09921C106.263 3.06497 106.258 3.03072 106.249 2.99648C105.892 1.66973 104.603 1.27313 103.861 1.25031C103.861 1.25031 94.2969 1.27884 93.6378 1.2817C93.1471 1.28455 91.9744 1.39867 91.6662 2.35736C91.3295 3.40735 92.4452 4.22053 92.8104 4.48873C93.2954 4.84253 93.3154 5.22772 93.3182 5.23628C93.3125 5.28193 93.3154 5.2534 93.3154 5.29905L93.3525 17.7905C93.3525 17.8248 93.3553 17.859 93.3582 17.8932C93.4267 18.5295 92.8332 19.0431 92.8189 19.0574C92.0457 19.7136 91.1983 20.6923 91.5578 21.6281C91.7204 22.0533 92.1655 22.5469 93.2954 22.5155C96.4311 22.4099 99.4213 22.798 101.607 23.0804C102.868 23.2431 103.841 23.3715 104.574 23.3715C105.587 23.3715 106.141 23.1318 106.363 22.4185C106.717 21.2886 107.154 19.4853 107.339 18.5124C107.667 16.809 107.602 15.876 107.111 15.2825C106.825 14.9373 106.397 14.7404 105.935 14.7518C105.345 14.7547 104.803 14.9829 103.647 17.8191C103.638 17.839 103.633 17.859 103.624 17.879C103.059 19.5824 101.772 19.5995 100.018 19.4397C99.7494 19.414 99.5069 19.394 99.2986 19.3883C99.2245 19.3855 99.1617 19.3741 99.1474 19.3569C99.0789 19.2799 99.0418 19.0374 99.0533 18.889C99.0561 18.8519 99.059 18.812 99.059 18.7749C99.0361 17.023 99.0133 14.4151 99.039 14.1013C99.0476 14.0043 99.1274 13.5249 99.7523 13.5021H99.7552C99.9264 13.5021 100.132 13.9044 100.2 14.8117C100.351 16.7434 101.441 17.0572 101.904 17.1029C102.588 17.1714 103.045 16.906 103.305 16.672C103.907 16.1271 103.944 15.3253 103.944 15.1598L103.927 9.45622C103.944 9.17089 103.955 8.21791 103.382 7.5959C103.071 7.25922 102.64 7.07091 102.166 7.07091H102.163C100.457 7.07661 100.323 8.99685 100.28 9.62741L100.277 9.67021C100.274 9.71016 100.269 9.73013 100.269 9.73298C100.252 9.74725 100.083 9.87278 99.4984 9.89561C99.3728 9.89846 99.1103 9.90988 99.0304 9.57605C99.0162 8.99969 98.9334 5.64714 98.9192 5.31617C98.9106 5.08791 98.9448 4.83397 99.039 4.79117L100.785 4.78547C103.439 5.35897 104.215 8.24074 104.246 8.36058C104.286 8.5175 104.363 8.66301 104.474 8.78285C105.219 9.59602 105.838 9.52754 106.226 9.32782C106.654 9.10812 107.179 8.59739 106.791 6.69713L106.338 3.60993C106.466 3.94661 106.771 4.30612 107.476 4.50299C107.721 4.57147 107.853 4.65422 107.918 4.71128L107.967 20.6609C107.967 20.6866 107.97 20.7208 107.97 20.7493C107.995 21.0489 107.915 21.4141 107.841 21.4769C107.353 21.708 106.052 22.3243 106.249 23.4399C106.417 24.4043 107.536 24.7239 108.463 24.818L111.744 25.4258C111.767 25.4286 111.79 25.4343 111.816 25.4372C112.871 25.5542 113.519 25.2945 113.753 24.6697C113.97 24.0848 113.707 23.5341 112.971 23.0291C112.498 22.7066 112.438 22.4042 112.432 22.3528C112.432 22.35 112.432 22.3471 112.432 22.3443L112.404 12.863L120.153 27.7255C120.193 27.7997 120.241 27.871 120.298 27.9338C120.521 28.1763 121.12 28.8326 121.871 28.8326C122.022 28.8326 122.182 28.804 122.344 28.7412C122.889 28.5273 123.155 28.008 123.243 27.4915C124.11 34.9499 130.744 36.9357 130.798 36.95C132.442 37.4607 134.042 37.7204 135.555 37.7204C135.569 37.7204 135.583 37.7204 135.598 37.7204C138.254 37.7118 140.733 36.9272 143.173 35.3151C147.145 32.6987 148.919 28.8868 148.448 23.9906ZM124.122 6.62295C124.025 6.75705 123.879 6.92254 123.745 7.03953C123.708 7.07091 123.674 7.10515 123.642 7.14224C123.505 7.25922 123.357 7.3762 123.223 7.47892L123.217 5.44741C123.403 5.92676 123.708 6.33477 124.122 6.62295ZM139.364 33.0896C139.261 33.1552 139.17 33.2123 139.093 33.2636C138.436 33.703 136.365 34.4049 135.418 34.2195C130.516 33.2494 129.717 29.3861 129.677 29.1464C129.7 28.9923 129.711 28.8325 129.723 28.6642C129.788 27.7141 129.911 27.2433 130.747 27.0179C133.232 26.3474 133.731 23.8537 133.751 23.7481C133.757 23.7138 133.763 23.6825 133.766 23.6482C133.888 22.213 133.555 21.0575 132.776 20.2101C131.643 18.9803 130.037 18.9404 129.823 18.9404C129.82 18.9404 129.82 18.9404 129.817 18.9404C124.855 19.0117 123.588 22.6639 123.269 24.3016L123.223 8.84277C124.15 8.89699 124.912 8.66302 124.912 8.66302L124.906 8.66016C125.591 8.48326 126.173 8.24644 126.655 7.96397C126.57 8.46329 126.53 8.98258 126.53 9.51899C126.536 11.4649 127.748 14.321 129.189 15.7676C129.96 16.5208 130.992 17.2655 132.259 17.9903L136.237 20.2215C137.88 21.1431 139.486 22.1417 140.885 23.1147C141.952 23.8537 142.668 25.4001 142.719 26.4044C142.947 30.8213 140.525 32.3534 139.364 33.0896Z" fill="white"/>
<path d="M78.0268 4.26893C78.0867 4.24896 78.0839 4.2404 78.1495 4.1976C78.4605 3.99502 79.4106 3.37303 79.1253 2.4229C78.9313 1.77807 78.2636 1.42427 77.2393 1.42427C77.2336 1.42427 77.2308 1.42427 77.2251 1.42427L73.5701 1.43567C72.055 1.43853 71.7383 2.23173 71.6727 2.57412C71.6099 2.90224 71.6013 3.72397 72.891 4.2347C73.2048 4.36024 73.2419 4.97654 73.2419 4.97654L73.2505 8.40613L69.8466 3.49857C68.8109 1.78092 67.4213 1.49559 67.2644 1.46991C67.2073 1.46135 67.1503 1.45279 67.0932 1.45565L62.4767 1.46991C62.4053 1.46991 62.334 1.47847 62.2655 1.49274C62.0202 1.54695 61.2555 1.78092 60.9958 2.4714C60.4737 1.44138 59.3239 1.11611 58.6305 1.09329C58.6305 1.09329 44.8323 1.13323 44.1104 1.13609C43.34 1.13894 42.1531 1.66679 41.9248 2.64545C41.8649 2.90795 41.7536 3.81242 42.9149 4.39163C43.0918 4.48008 42.8978 4.9794 42.9006 4.9794C42.8835 5.01934 42.8664 5.05929 42.855 5.10208C42.835 5.16486 41.3741 9.94688 40.5239 12.6746L38.4353 5.09638C38.4239 5.05929 38.4125 5.02505 38.3982 4.99081C38.3668 4.91377 38.3583 4.85955 38.3554 4.83102C38.3811 4.8139 38.4039 4.79679 38.4267 4.77967C39.2684 4.12057 39.6137 3.42438 39.4539 2.70537C39.2142 1.6297 37.9531 1.2873 37.702 1.23024C37.6278 1.21312 37.5451 1.196 37.4795 1.20456L31.8557 1.22168C31.7844 1.22168 31.7131 1.23024 31.6446 1.24451C30.8029 1.43568 29.9869 2.06624 30.0696 3.05631C30.1552 4.01785 31.0597 4.54 31.8101 4.69407C31.8215 4.69693 31.8329 4.69692 31.8415 4.69978C31.9242 4.75399 32.064 4.95086 32.1439 5.11635L33.0284 8.34337C32.2695 11.0796 31.4249 13.9871 30.8856 15.679C29.6274 11.3535 28.0295 5.7783 27.9382 5.21051C27.9354 5.17912 27.9325 5.15059 27.9297 5.12776C27.9382 5.11635 27.9497 5.10494 27.9582 5.09638C28.0781 4.95372 28.2036 4.84815 28.3377 4.73687C28.6601 4.46867 29.1452 4.06065 29.1423 3.26745C29.1395 2.30306 28.6002 1.68105 28.4918 1.56407C28.3092 1.37005 28.0524 1.25877 27.787 1.25592L20.671 1.20456C20.6397 1.20456 20.614 1.20456 20.5855 1.20742C19.6211 1.28445 18.8678 1.75809 18.3171 2.10333C18.2258 2.16039 18.1174 2.22887 18.0232 2.28308C17.6752 2.06338 17.0845 1.71814 16.0973 1.40714C14.5851 0.930647 13.8347 0.770869 12.6021 0.776575C10.3652 0.799401 8.52482 1.53839 6.81573 3.10196C5.05528 4.70548 4.16793 6.73699 4.17649 9.13941C4.18219 11.0853 5.39482 13.9414 6.8357 15.388C7.60608 16.1413 8.63895 16.8888 9.90579 17.6107L13.8832 19.8419C15.9832 21.0174 17.5667 22.0617 18.5283 22.7322C19.5269 23.4256 20.3201 25.1974 20.3658 26.3188C20.5427 30.7698 18.1516 32.2906 17.0046 33.021C14.9104 34.3535 13.4495 34.2137 13.0529 34.1395C8.35648 33.2692 7.32931 29.6627 7.32075 29.0864C7.34643 28.9266 7.35785 28.7611 7.37211 28.5842C7.43774 27.6369 7.56043 27.1633 8.39357 26.9408C10.8787 26.2703 11.3809 23.7737 11.4009 23.6681C11.4066 23.6339 11.4123 23.6025 11.4151 23.5682C11.5378 22.1331 11.204 20.9775 10.4279 20.1329C9.28664 18.8918 7.66599 18.8632 7.46912 18.8632C1.09784 18.9574 0.818225 24.9578 0.815372 25.0063C0.578553 29.9252 2.66142 32.8926 4.44754 34.5132C6.38204 36.2708 8.38216 36.8529 8.44208 36.87C10.0798 37.3836 11.6662 37.6432 13.1556 37.6432C13.187 37.6432 13.2155 37.6432 13.2469 37.6432C16.0146 37.629 18.3514 36.8871 20.8251 35.2351C23.0649 33.7372 26.7285 30.2363 26.0951 23.6082C25.9239 21.8306 25.2134 19.4111 24.0065 17.9987C23.0506 16.9116 21.3102 15.2824 18.4512 13.6989L14.0943 11.2879C12.8361 10.5974 11.6463 9.94688 11.087 9.3477C10.5335 8.76564 10.2624 8.07801 10.2596 7.24771C10.2567 6.14351 10.4165 5.67844 10.9786 5.17341C11.4009 4.79108 11.5264 4.67695 12.6449 4.61703C13.5408 4.56852 13.9774 4.78252 15.5495 6.02939C16.551 6.82829 18.0546 9.19363 18.631 10.6231C18.6738 10.7315 18.7366 10.8314 18.8164 10.917C19.0247 11.1452 19.778 11.8785 20.6653 11.7787C21.1475 11.7244 21.5527 11.442 21.8095 10.9855C21.9122 10.8028 21.9522 10.5946 21.9293 10.3891L21.4272 6.25764C22.8909 11.3278 27.1422 26.1105 27.5759 28.1705C27.67 28.6242 27.9611 30.0023 29.0881 30.1364C30.1495 30.2619 30.8172 29.1235 31.0511 28.627C31.074 28.5814 31.0911 28.5357 31.1053 28.4872C31.1367 28.3788 33.9044 19.1372 35.0542 15.5735C36.3382 19.6821 37.9645 25.0234 38.0872 25.8251C38.2441 26.8609 38.7663 27.1662 39.18 27.2403C39.7849 27.3488 40.3641 26.9893 40.775 26.2503C40.8063 26.1932 40.832 26.1333 40.852 26.0705C41.0774 25.3715 45.8309 10.5118 47.1034 6.30901L47.1462 20.5581C47.1462 20.5809 47.1462 20.6037 47.1491 20.6294C47.209 21.4426 46.6441 21.9647 46.607 21.9961C45.1233 23.34 45.2289 24.0818 45.44 24.5241C45.5912 24.8408 46.0049 25.3487 47.0835 25.1803C47.8225 25.0662 50.9582 24.5298 53.9912 23.9192C60.2512 22.6581 60.3853 22.2586 60.5907 21.6509C60.6135 21.5852 60.6363 21.5082 60.6592 21.4226C60.6649 21.4483 60.6677 21.474 60.6734 21.4996C60.9103 22.4098 61.9574 22.5667 62.2712 22.5953C62.2998 22.5981 62.3255 22.5981 62.354 22.5981C62.3882 22.5981 62.4253 22.5953 62.4596 22.5924L67.4584 22.0475C67.5041 22.0418 67.5469 22.0332 67.5925 22.0246C68.4457 21.8078 68.9564 21.3227 68.9963 20.6865C69.0591 19.7021 68.0034 19.2912 67.6553 19.1543C66.9135 18.8661 66.7023 18.3639 66.6538 18.2127L66.6281 9.70721L74.757 21.2286C74.7798 21.2628 74.8055 21.2942 74.8341 21.3227C75.1023 21.6166 75.9183 22.5068 76.8798 22.1331C77.5732 21.862 77.8185 21.0945 77.8185 20.4639L77.7729 4.93945C77.7586 4.49434 77.9555 4.31744 78.0268 4.26893ZM61.6293 4.17764C62.1314 4.57138 62.3711 4.81962 62.4767 4.94516L62.4852 7.59296C62.4396 7.31335 62.3683 7.03943 62.2884 6.79405L61.5037 4.06636C61.5437 4.10345 61.5808 4.14055 61.6293 4.17764ZM53.7229 20.3869C53.5518 20.3812 53.2293 20.3726 53.2236 19.9075C53.2236 19.8933 53.2236 19.879 53.2236 19.8647C53.198 17.9787 53.1751 15.1712 53.2008 14.843C53.2122 14.7289 53.3149 14.1497 54.0882 14.1212C54.1024 14.1212 54.1195 14.1212 54.1338 14.1212C54.9441 14.1212 55.2352 14.9315 55.2466 15.0399C55.4064 17.0828 56.3023 17.5707 57.0213 17.6192C57.4635 17.6506 57.8459 17.5194 58.154 17.2997C56.9129 19.4824 54.5647 20.424 53.7229 20.3869ZM61.752 19.6137C61.5636 19.7392 61.1613 20.0103 60.8931 20.3983C61.1556 19.1315 61.4295 17.4452 61.5094 16.8802C61.6093 16.1812 61.6492 15.3138 61.0786 14.8031C60.759 14.5178 60.3225 14.4179 59.8831 14.5292C59.4722 14.6319 59.1869 14.9229 58.9843 15.2653L58.9643 9.40191C58.9758 8.95966 58.933 7.86402 58.2824 7.27625C57.9686 6.99093 57.5606 6.86538 57.1383 6.91959C55.8857 7.07938 55.2238 8.44893 55.141 9.63873C55.1153 9.7928 54.7416 10.3492 53.8228 10.3834C53.4034 10.4005 53.3577 10.255 53.3435 10.158C53.3378 9.74145 53.2836 6.21485 53.2807 5.45303C53.2807 5.32464 53.4291 5.10494 53.6003 4.92518L55.4263 4.85671C57.94 5.40168 59.7604 8.82841 59.7775 8.86265C59.8517 9.00531 59.9573 9.12515 60.0885 9.21646C61.0073 9.85273 61.6293 9.66726 61.9859 9.40191C62.2684 9.19077 62.4196 8.89974 62.4881 8.56877L62.5166 18.4695C62.5166 18.5351 62.5109 18.5294 62.5223 18.5808C62.5138 18.6863 62.451 19.1457 61.752 19.6137Z" fill="white"/>
<path d="M91.2507 12.666L91.1052 12.4891C90.4775 11.7245 89.6985 10.7772 88.1435 9.85273L86.1605 8.41185C86.1348 8.39188 86.1063 8.37476 86.0778 8.35764C85.2189 7.85547 84.6512 7.43034 84.2859 7.01662C84.2146 6.93673 84.1404 6.85684 84.0634 6.7741C83.8009 6.49448 83.5042 6.17777 83.5042 5.96948C83.5013 5.30468 83.6896 4.97085 83.7609 4.89666C83.9778 4.67982 84.3772 4.50862 84.6683 4.50577C85.3331 4.51148 85.5471 4.6627 85.8923 4.90522L85.9351 4.93376C87.8325 6.25195 88.9909 7.78984 89.5473 8.53168C89.6443 8.66008 89.7214 8.7628 89.7841 8.83984C90.4176 9.61877 90.9939 9.57597 91.362 9.40193C91.6787 9.25356 92.1723 8.83698 91.9554 7.72993L91.0082 2.38011C90.9939 2.29451 90.9682 2.21177 90.9311 2.13473C90.5973 1.42428 90.0495 1.26449 89.7499 1.23025C88.9025 1.1361 88.2149 1.80661 87.901 2.18039C87.881 2.18609 87.861 2.18894 87.8468 2.19179C87.5529 1.99777 86.9195 1.60688 86.403 1.46136C86.3232 1.43854 86.2404 1.41571 86.1577 1.39003C85.6897 1.25022 85.1105 1.06762 84.4343 1.07903C82.6967 1.08188 80.7708 1.84941 79.8577 2.8994C79.2985 3.54138 78.1486 5.40454 78.1543 7.07369C78.1572 8.28631 78.8049 10.1438 79.8863 11.1481C79.969 11.2251 80.0403 11.2936 80.1088 11.3592C80.4255 11.6645 80.7023 11.9299 81.3528 12.3293L83.818 14.2011C83.8465 14.2239 83.8779 14.2439 83.9093 14.261C85.2589 15.0656 85.9522 15.5307 86.2918 15.8531C87.1677 16.7148 87.162 17.0943 87.1592 17.3995C87.1592 17.4851 87.1592 17.5679 87.162 17.6392C87.182 18.033 86.9509 18.2726 86.8111 18.3811C85.9151 19.0715 85.4301 19.0516 85.1419 18.9745C85.0392 18.946 85.0078 18.9346 84.9137 18.9403C84.7453 18.9118 83.5669 18.6493 81.9634 16.535C81.9548 16.5208 81.9434 16.5093 81.932 16.4951C81.9263 16.4894 81.4327 15.8987 80.611 14.689C80.591 14.6576 80.5682 14.6291 80.5453 14.6034C79.9005 13.8501 79.2214 13.5848 78.628 13.8587C78.0545 14.1212 77.8319 14.7118 77.9689 15.6163C78.1943 17.0914 79.0531 20.8605 79.0902 21.0232C79.1644 21.3399 79.4782 22.3841 80.4312 22.504C81.2815 22.6124 81.8122 21.8848 82.0718 21.434C82.1146 21.4312 82.1603 21.4255 82.2088 21.4198C82.3629 21.3998 82.748 21.5767 82.8622 21.6309C83.0648 21.7279 84.8109 22.5411 85.9323 22.5411C85.9836 22.5411 86.035 22.5382 86.0863 22.5354C87.8839 22.3927 88.9795 22.1159 90.3434 20.9404C91.6958 19.7763 92.6003 17.8618 92.5974 16.1755C92.586 15 92.101 13.7246 91.2507 12.666Z" fill="white"/>
<path d="M149.971 35.1895C150.47 35.6917 150.718 36.2937 150.721 37.0013C150.721 37.7146 150.476 38.3252 149.979 38.8302C149.483 39.3352 148.881 39.5863 148.167 39.5892C147.457 39.5892 146.852 39.3409 146.353 38.8416C145.859 38.3395 145.608 37.7317 145.605 37.0156C145.605 36.3051 145.851 35.7002 146.344 35.2009C146.846 34.6959 147.445 34.4448 148.153 34.4419C148.864 34.4391 149.468 34.6873 149.971 35.1895ZM150.264 34.9013C149.682 34.3221 148.978 34.0368 148.153 34.0368C147.331 34.0425 146.635 34.3307 146.059 34.9127C145.477 35.4948 145.189 36.1995 145.191 37.0156C145.194 37.843 145.485 38.5477 146.062 39.1269C146.641 39.709 147.346 40 148.17 40C148.995 39.9972 149.7 39.7033 150.276 39.1184C150.858 38.5306 151.146 37.8259 151.143 37.0013C151.14 36.1796 150.849 35.4777 150.264 34.9013ZM148.604 36.87C148.481 36.9157 148.299 36.9442 148.056 36.9442L147.54 36.9471L147.534 35.763H148.028C148.344 35.763 148.578 35.8001 148.724 35.88C148.869 35.9627 148.943 36.1225 148.943 36.3593C148.941 36.6075 148.829 36.7787 148.604 36.87ZM146.966 38.639H147.54V37.3465H147.993C148.296 37.3437 148.513 37.3808 148.635 37.4492C148.838 37.5719 148.943 37.8202 148.943 38.1996V38.4593L148.958 38.5649C148.961 38.5791 148.963 38.5905 148.966 38.602C148.969 38.6105 148.972 38.6248 148.975 38.6333L149.514 38.6305L149.494 38.5905C149.48 38.5649 149.468 38.5078 149.463 38.4222C149.46 38.3366 149.457 38.2539 149.457 38.1768V37.94C149.454 37.7745 149.394 37.6062 149.277 37.4321C149.157 37.2581 148.969 37.1525 148.712 37.1126C148.915 37.0812 149.072 37.027 149.186 36.9528C149.4 36.813 149.506 36.5961 149.503 36.3079C149.503 35.8971 149.334 35.6232 148.995 35.4805C148.806 35.4035 148.507 35.3635 148.102 35.3635L146.958 35.3692L146.966 38.639Z" fill="black"/>
<path d="M20.9442 10.5146L20.2224 4.55708C20.8501 2.90506 21.863 4.29459 21.863 4.29459C21.863 4.29459 27.9832 25.4314 28.5196 27.9765C29.056 30.5244 30.1545 28.2133 30.1545 28.2133C30.1545 28.2133 33.9122 15.6533 34.5342 14.0156C35.1534 12.3778 35.5443 13.9157 35.5443 13.9157C35.5443 13.9157 38.8426 24.3871 39.0395 25.6853C39.2363 26.9835 39.9069 25.7795 39.9069 25.7795C39.9069 25.7795 46.0042 6.72269 46.4322 5.08493C46.8602 3.45003 47.3909 3.64119 47.3909 3.64119C47.9673 3.49568 48.0643 4.50573 48.0643 4.50573L48.1128 20.5637C48.2155 21.9105 47.2539 22.7293 47.2539 22.7293C47.2539 22.7293 45.3366 24.4641 46.923 24.2216C48.5065 23.9734 59.4059 22.0817 59.6541 21.3484C59.9081 20.5923 60.396 17.7562 60.5358 16.7461C60.6784 15.7361 60.5015 15.3823 60.1163 15.4821C59.7311 15.5791 59.5428 16.5892 59.5428 16.5892C58.4443 19.8133 55.1831 21.4112 53.6908 21.3655C52.1986 21.3199 52.2443 19.879 52.2443 19.879C52.2443 19.879 52.1815 15.1683 52.2271 14.7374C52.2756 14.3037 52.6551 13.1967 54.0504 13.1453C55.4456 13.094 56.1703 14.3408 56.2217 14.9657C56.2702 15.5906 56.4185 16.6006 57.089 16.6462C57.7624 16.6948 58.0021 15.9244 58.0021 15.9244L57.9821 9.38476C57.9821 9.38476 58.0249 7.79836 57.2545 7.89822C56.487 7.99523 56.1532 9.10229 56.1075 9.73C56.059 10.352 55.2944 11.3164 53.8506 11.3706C52.4069 11.4248 52.3584 10.2236 52.3584 10.2236C52.3584 10.2236 52.2985 6.28043 52.2928 5.46441C52.2928 4.64553 53.2029 3.96932 53.2029 3.96932L55.4941 3.88372C58.5727 4.45152 60.6356 8.42037 60.6356 8.42037C62.1107 9.44183 61.3375 7.07364 61.3375 7.07364L60.219 3.18182C59.9252 2.12612 58.6298 2.08047 58.6298 2.08047C58.6298 2.08047 44.8315 2.12042 44.1097 2.12327C43.3878 2.12612 42.1837 2.945 43.345 3.52135C44.4036 4.0435 43.7844 5.39308 43.7844 5.39308C43.7844 5.39308 41.2108 13.8158 40.8798 14.7774C40.5431 15.7389 40.1094 14.8744 40.1094 14.8744L37.4845 5.3617C37.0964 4.40016 37.8183 4.01497 37.8183 4.01497C39.5445 2.66539 37.4759 2.1889 37.4759 2.1889L31.8522 2.20602C31.8522 2.20602 30.9876 2.40003 31.0361 2.97639C31.0875 3.55559 32.0005 3.74391 32.0005 3.74391C32.6739 3.83806 33.0619 4.79961 33.0619 4.79961L34.0349 8.35474C34.0349 8.35474 31.7038 16.7746 31.2245 17.5935C30.7451 18.4124 30.4569 17.739 30.4569 17.739C30.4569 17.739 27.0559 6.11495 26.9589 5.34458C26.859 4.57706 27.1957 4.47719 27.1957 4.47719C27.675 3.89798 28.1544 3.80383 28.1515 3.27598C28.1515 2.65112 27.7663 2.24311 27.7663 2.24311L20.6504 2.19175C19.4006 2.29161 18.5047 3.35016 17.9284 3.35302C17.7144 3.35302 17.2835 2.81947 15.7942 2.35153C14.3019 1.8836 13.6628 1.7552 12.6042 1.76662C10.6013 1.78659 9.01771 2.41715 7.46555 3.83521C5.91054 5.25327 5.13731 7.02228 5.14302 9.14794C5.14587 10.7543 6.18445 13.3736 7.5055 14.7003C8.21881 15.3965 9.17464 16.087 10.3701 16.7689L14.3476 19.0002C16.6359 20.2813 18.285 21.3912 19.0725 21.9419C20.3565 22.8349 21.2752 24.9206 21.3294 26.293C21.5235 31.1749 18.85 33.0124 17.5147 33.8598C15.6372 35.0525 13.9652 35.3235 12.8582 35.1153C7.35427 34.0938 6.21013 29.6684 6.33567 28.9665C6.46406 28.2589 6.20157 26.5299 8.1218 26.0106C10.0449 25.4913 10.4215 23.5026 10.4215 23.5026C10.7325 19.8504 7.4627 19.859 7.4627 19.859C1.95024 19.9389 1.77334 25.069 1.77334 25.069C1.35106 33.8513 8.71812 35.9512 8.71812 35.9512C10.2874 36.442 11.7882 36.6874 13.2262 36.6788C15.8341 36.6646 17.9854 35.957 20.2652 34.4362C22.2282 33.1237 25.7006 29.9309 25.1071 23.7166C24.9502 22.0788 24.2882 19.8647 23.2582 18.6606C22.2082 17.468 20.5248 15.9871 17.9655 14.5691L14.048 12.4006C12.5158 11.5561 11.0949 10.8171 10.3673 10.0381C9.63972 9.27348 9.2745 8.34618 9.2688 7.2648C9.26594 6.05788 9.44284 5.24472 10.3074 4.46293C10.9465 3.88657 11.3117 3.72108 12.5786 3.65546C13.8625 3.58983 14.5359 4.00355 16.1422 5.27895C17.3549 6.2462 18.9384 8.82838 19.5205 10.2721C19.5262 10.2664 20.4906 11.3193 20.9442 10.5146Z" fill="#E10E18"/>
<path d="M93.3842 3.70106C94.3486 4.40295 94.2915 5.30173 94.2915 5.30173L94.3286 17.7932C94.457 18.9887 93.4498 19.8076 93.4498 19.8076C93.4498 19.8076 91.3298 21.6023 93.2615 21.5395C99.5557 21.3284 105.145 23.0403 105.428 22.1273C105.767 21.0373 106.198 19.2569 106.378 18.3268C106.806 16.1126 106.418 15.7303 105.938 15.7332C105.553 15.736 104.552 18.1898 104.552 18.1898C103.559 21.1885 100.617 20.4068 99.2675 20.3668C97.918 20.3269 98.0777 18.789 98.0777 18.789C98.0777 18.789 98.0207 14.4093 98.0635 14.0041C98.1034 13.6018 98.4515 12.5718 99.7127 12.5261C100.974 12.4776 101.131 14.1553 101.174 14.7374C101.219 15.3194 101.388 16.0698 101.995 16.1298C102.957 16.2211 102.962 15.1654 102.962 15.1654L102.945 9.42465C102.945 9.42465 103.062 8.04939 102.164 8.05224C101.348 8.0551 101.29 9.16215 101.251 9.74421C101.208 10.3263 100.837 10.8284 99.5329 10.8769C98.229 10.9226 98.0521 9.68144 98.0521 9.68144C98.0521 9.68144 97.9551 5.70689 97.9408 5.35594C97.8837 3.85799 98.9622 3.81518 98.9622 3.81518L100.885 3.80948C104.278 4.46858 105.197 8.12643 105.197 8.12643C106.352 9.38756 105.83 6.87101 105.83 6.87101L105.299 3.25595C105.037 2.27444 103.858 2.2345 103.858 2.2345C103.858 2.2345 94.2944 2.26303 93.641 2.26588C93.641 2.26017 91.4354 2.28014 93.3842 3.70106Z" fill="#E10E18"/>
<path d="M141.433 2.6939C141.042 3.1333 140.392 3.90938 139.818 3.90082C139.002 3.88656 138.152 3.16469 137.875 3.02488C137.025 2.59404 136.018 2.50274 134.956 2.51986C132.585 2.5598 130.676 3.4015 129.195 4.89374C128.237 5.85814 127.506 7.39319 127.512 9.51885C127.515 11.1224 128.556 13.7445 129.874 15.0712C130.588 15.7674 131.544 16.4579 132.739 17.1398L136.717 19.3711C139.005 20.655 140.654 21.7621 141.442 22.3128C142.725 23.203 143.627 24.9891 143.696 26.3587C143.967 31.7427 140.591 33.4375 139.633 34.0824C138.834 34.6159 136.497 35.4376 135.224 35.1866C129.897 34.1337 128.579 29.7397 128.702 29.035C128.827 28.3302 128.568 26.5983 130.488 26.0819C132.411 25.5626 132.788 23.5739 132.788 23.5739C133.096 19.9189 129.829 19.9275 129.829 19.9275C124.314 20.0073 124.137 25.1375 124.137 25.1375C123.714 33.9197 131.081 36.0226 131.081 36.0226C132.648 36.5105 134.151 36.753 135.587 36.7501C138.446 36.7416 140.771 35.7315 142.626 34.5075C144.594 33.2093 148.061 30.3104 147.465 24.0932C147.308 22.4554 146.649 20.2413 145.616 19.0344C144.569 17.8446 142.882 16.3666 140.323 14.9457L136.406 12.7772C134.879 11.9327 133.452 11.1937 132.728 10.4119C132 9.64725 131.8 8.70853 131.629 7.63857C131.552 7.15066 132.029 5.75543 132.462 5.27323C133.039 4.63125 134.522 4.02922 135.293 4.00069C136.206 3.96645 137.65 4.72826 138.503 5.40162C139.721 6.36031 141.781 8.85118 142.429 10.9654C142.429 10.9654 143.442 12.3578 143.433 9.66721L142.42 2.95355C142.429 2.94499 142.198 1.82652 141.433 2.6939Z" fill="#E10E18"/>
<path d="M67.3464 21.083L62.3476 21.628C62.3476 21.628 60.7126 21.491 62.2962 20.4268C63.6401 19.5251 63.4917 18.4666 63.4917 18.4666L63.4518 4.6826C63.4518 4.6826 63.409 4.32594 62.2306 3.40435C61.329 2.70245 62.4845 2.44281 62.4845 2.44281L67.1011 2.42855C67.1011 2.42855 68.191 2.61686 69.027 4.02636L73.5979 10.6145C73.5979 10.6145 74.2427 11.4476 74.237 9.90688L74.2227 4.97078C74.2227 4.97078 74.2199 3.70394 73.2555 3.32161C72.2939 2.93928 72.4851 2.40857 73.575 2.40857L77.23 2.39716C77.23 2.39716 79.1189 2.39146 77.6152 3.37582C77.6152 3.37582 76.7678 3.74674 76.7878 4.96222L76.8334 20.4753C76.8334 20.4753 76.8363 22.0788 75.5523 20.6721L66.7958 8.26341C66.7958 8.26341 65.703 6.98516 65.6402 8.46028L65.6716 18.3325C65.6716 18.3325 65.8599 19.5137 67.2951 20.073C68.8815 20.695 67.3464 21.083 67.3464 21.083Z" fill="#E10E18"/>
<path d="M111.925 24.4641L108.604 23.8478C108.604 23.8478 105.714 23.5681 108.265 22.3612C109.081 21.9732 108.95 20.6607 108.95 20.6607L108.901 4.45716C108.901 4.45716 108.77 3.84943 107.745 3.56411C106.681 3.26737 107.631 2.69957 107.631 2.69957L112.231 2.68816C112.231 2.68816 113.064 2.62254 113.906 4.54276L119.064 14.9114C119.064 14.9114 120.029 15.7417 120.026 14.2038L119.997 5.2304C119.997 5.2304 120.237 4.39724 118.71 3.58407C117.797 3.09617 117.937 2.67104 119.027 2.66818L122.679 2.65677C122.679 2.65677 124.571 2.65107 123.065 3.63258C123.065 3.63258 122.217 4.0035 122.237 5.22184L122.303 27.0805C122.303 27.0805 122.306 28.684 121.019 27.2774L112.251 10.4604C112.251 10.4604 111.349 8.58865 111.42 11.4077L111.452 22.3527C111.452 22.3527 111.406 23.1487 112.419 23.8392C113.606 24.6495 111.925 24.4641 111.925 24.4641Z" fill="#E10E18"/>
<path d="M81.321 20.7549C81.4238 20.5523 81.6577 20.461 81.9887 20.461C82.1228 20.461 82.371 20.3183 83.2784 20.7492C83.9831 21.083 85.3641 21.6109 86.0032 21.5623C87.7323 21.4254 88.5882 21.16 89.701 20.2042C90.8138 19.2455 91.6184 17.6078 91.6155 16.184C91.6127 15.1226 91.1248 14.0726 90.4999 13.2965C89.8636 12.529 89.1617 11.5931 87.6067 10.6773L85.5866 9.20784C84.6565 8.66287 84.0031 8.17781 83.5608 7.67564C83.1186 7.18203 82.5308 6.67986 82.5308 5.98082C82.528 5.20188 82.7362 4.5542 83.0729 4.21752C83.4553 3.83233 84.0972 3.5413 84.6736 3.53845C85.6637 3.5356 86.0916 3.85802 86.5025 4.14334C88.8479 5.77254 90.1547 7.74127 90.5541 8.23488C91.2303 9.06517 91.0021 7.91247 91.0021 7.91247L90.0576 2.56265C89.6068 1.60396 88.5854 2.9193 88.5854 2.9193C88.4513 3.07908 87.8122 3.34729 87.367 3.0534C87.27 2.99063 86.5995 2.54267 86.1487 2.41713C85.6608 2.28017 85.093 2.06618 84.4482 2.07189C82.8903 2.07474 81.2782 2.78234 80.6049 3.55842C80.1598 4.06915 79.1383 5.71832 79.144 7.08788C79.1469 8.1236 79.7546 9.69573 80.5649 10.449C81.0215 10.8741 81.1869 11.0967 81.9145 11.5361L84.4196 13.4392C85.8092 14.2666 86.5539 14.7631 86.9876 15.1768C88.3286 16.4979 88.126 17.1684 88.1488 17.6078C88.1831 18.2469 87.892 18.809 87.4184 19.1742C86.6794 19.742 85.8177 20.1785 84.9047 19.9389C84.9047 19.9389 83.3183 19.9446 81.1926 17.1455C81.1926 17.1455 80.6791 16.5378 79.8088 15.2596C79.8088 15.2596 78.7132 13.9813 78.9414 15.4878C79.164 16.9458 80.0485 20.8234 80.0485 20.8234C80.0485 20.8234 80.428 22.4897 81.321 20.7549Z" fill="#E10E18"/>
<path d="M124.035 3.81521C124.035 3.81521 124.611 2.33724 125.958 2.40857C127.864 2.50843 129.271 6.72266 124.377 7.78692C124.377 7.78692 125.892 6.50296 124.805 5.90093C124.123 5.52145 123.875 4.71113 124.035 3.81521Z" fill="#E10E18"/>
</svg>
