<svg width="12" height="14" viewBox="0 0 12 14" fill="none" xmlns="http://www.w3.org/2000/svg">
<path d="M6.00008 6.99992C5.26675 6.99992 4.66675 6.39992 4.66675 5.66659C4.66675 4.93325 5.26675 4.33325 6.00008 4.33325C6.73341 4.33325 7.33341 4.93325 7.33341 5.66659C7.33341 6.39992 6.73341 6.99992 6.00008 6.99992ZM10.0001 5.79992C10.0001 3.37992 8.23341 1.66659 6.00008 1.66659C3.76675 1.66659 2.00008 3.37992 2.00008 5.79992C2.00008 7.35992 3.30008 9.42659 6.00008 11.8933C8.70008 9.42659 10.0001 7.35992 10.0001 5.79992ZM6.00008 0.333252C8.80008 0.333252 11.3334 2.47992 11.3334 5.79992C11.3334 8.01325 9.55341 10.6333 6.00008 13.6666C2.44675 10.6333 0.666748 8.01325 0.666748 5.79992C0.666748 2.47992 3.20008 0.333252 6.00008 0.333252Z" fill="#667085"/>
</svg>
