<svg width="24" height="24" viewBox="0 0 24 24" fill="none" xmlns="http://www.w3.org/2000/svg">
<g clip-path="url(#clip0_9931_3982)">
<path d="M17 6.3335L16 5.3335L15 6.3335L14 5.3335L13 6.3335L12 5.3335L11 6.3335L10 5.3335L9 6.3335L8 5.3335V14.6668H6V16.6668C6 17.7735 6.89333 18.6668 8 18.6668H16C17.1067 18.6668 18 17.7735 18 16.6668V5.3335L17 6.3335ZM16.6667 16.6668C16.6667 17.0335 16.3667 17.3335 16 17.3335C15.6333 17.3335 15.3333 17.0335 15.3333 16.6668V14.6668H9.33333V7.3335H16.6667V16.6668Z" fill="#101828"/>
<path d="M14 8.66683H10V10.0002H14V8.66683Z" fill="#101828"/>
<path d="M16 8.66683H14.6667V10.0002H16V8.66683Z" fill="#101828"/>
<path d="M14 10.6668H10V12.0002H14V10.6668Z" fill="#101828"/>
<path d="M16 10.6668H14.6667V12.0002H16V10.6668Z" fill="#101828"/>
</g>
<defs>
<clipPath id="clip0_9931_3982">
<path d="M0 12C0 5.37258 5.37258 0 12 0C18.6274 0 24 5.37258 24 12C24 18.6274 18.6274 24 12 24C5.37258 24 0 18.6274 0 12Z" fill="white"/>
</clipPath>
</defs>
</svg>
