<svg width="16" height="16" viewBox="0 0 16 16" fill="none" xmlns="http://www.w3.org/2000/svg">
<g id="icon-left">
<g id="Vector">
<path d="M12.2603 9.70675C11.1403 9.13341 9.68699 8.66675 8.00033 8.66675C6.31366 8.66675 4.86033 9.13341 3.74033 9.70675C3.07366 10.0467 2.66699 10.7334 2.66699 11.4801V12.0001C2.66699 12.7334 3.26699 13.3334 4.00033 13.3334H12.0003C12.7337 13.3334 13.3337 12.7334 13.3337 12.0001V11.4801C13.3337 10.7334 12.927 10.0467 12.2603 9.70675Z" fill="white"/>
<path d="M6.52033 8.00008H9.48033C10.287 8.00008 10.907 7.29341 10.8003 6.49341L10.587 4.86008C10.3803 3.59341 9.28032 2.66675 8.00033 2.66675C6.72033 2.66675 5.62033 3.59341 5.41366 4.86008L5.20033 6.49341C5.09366 7.29341 5.71366 8.00008 6.52033 8.00008Z" fill="white"/>
</g>
</g>
</svg>
