<svg width="29" height="28" viewBox="0 0 29 28" fill="none" xmlns="http://www.w3.org/2000/svg">
<g clip-path="url(#clip0_4155_1975)">
<path d="M28.7954 14C28.7954 6.26801 22.5274 0 14.7954 0C7.06342 0 0.79541 6.26801 0.79541 14C0.79541 20.9877 5.91498 26.7796 12.6079 27.8299V18.0469H9.05322V14H12.6079V10.9156C12.6079 7.40688 14.6981 5.46875 17.8959 5.46875C19.4272 5.46875 21.0298 5.74219 21.0298 5.74219V9.1875H19.2645C17.5254 9.1875 16.9829 10.2668 16.9829 11.375V14H20.8657L20.245 18.0469H16.9829V27.8299C23.6758 26.7796 28.7954 20.9877 28.7954 14Z" fill="#1877F2"/>
<path d="M20.245 18.0469L20.8657 14H16.9829V11.375C16.9829 10.2679 17.5254 9.1875 19.2645 9.1875H21.0298V5.74219C21.0298 5.74219 19.4277 5.46875 17.8959 5.46875C14.6981 5.46875 12.6079 7.40688 12.6079 10.9156V14H9.05322V18.0469H12.6079V27.8299C14.0574 28.0567 15.5334 28.0567 16.9829 27.8299V18.0469H20.245Z" fill="white"/>
</g>
<defs>
<clipPath id="clip0_4155_1975">
<rect width="28" height="28" fill="white" transform="translate(0.79541)"/>
</clipPath>
</defs>
</svg>
