<svg width="33" height="32" viewBox="0 0 33 32" fill="none" xmlns="http://www.w3.org/2000/svg">
<path d="M0.79541 16C0.79541 7.16344 7.95885 0 16.7954 0C25.632 0 32.7954 7.16344 32.7954 16C32.7954 24.8366 25.632 32 16.7954 32C7.95885 32 0.79541 24.8366 0.79541 16Z" fill="black"/>
<path d="M20.2465 13.7756C21.2754 14.5137 22.5358 14.948 23.8972 14.948V12.319C23.6395 12.319 23.3826 12.2921 23.1305 12.2385V14.3079C21.7693 14.3079 20.509 13.8736 19.4798 13.1355V18.5005C19.4798 21.1843 17.3118 23.3599 14.6377 23.3599C13.6399 23.3599 12.7125 23.0571 11.9421 22.538C12.8214 23.4402 14.0476 23.9999 15.4042 23.9999C18.0785 23.9999 20.2466 21.8244 20.2466 19.1404V13.7756H20.2465ZM21.1922 11.1232C20.6664 10.5467 20.3212 9.8017 20.2465 8.97804V8.63989H19.5199C19.7028 9.68677 20.3266 10.5812 21.1922 11.1232ZM13.6335 20.4785C13.3397 20.0919 13.181 19.619 13.1817 19.1327C13.1817 17.9053 14.1733 16.91 15.3967 16.91C15.6247 16.9099 15.8513 16.945 16.0686 17.0142V14.3264C15.8147 14.2915 15.5584 14.2767 15.3022 14.2821V16.3741C15.0848 16.3049 14.8581 16.2698 14.63 16.27C13.4066 16.27 12.4151 17.2652 12.4151 18.4928C12.4151 19.3608 12.9107 20.1124 13.6335 20.4785Z" fill="white"/>
<path d="M19.4797 13.1355C20.5089 13.8735 21.7692 14.3078 23.1304 14.3078V12.2384C22.3706 12.076 21.6979 11.6775 21.1922 11.1232C20.3265 10.5811 19.7027 9.68672 19.5199 8.63989H17.6115V19.1403C17.6071 20.3645 16.6172 21.3557 15.3965 21.3557C14.6771 21.3557 14.038 21.0115 13.6333 20.4785C12.9105 20.1124 12.4149 19.3608 12.4149 18.4929C12.4149 17.2653 13.4064 16.2701 14.6298 16.2701C14.8642 16.2701 15.0901 16.3067 15.302 16.3742V14.2822C12.6749 14.3366 10.562 16.4909 10.562 19.1404C10.562 20.463 11.0882 21.662 11.9421 22.538C12.7125 23.0571 13.6399 23.3599 14.6377 23.3599C17.3119 23.3599 19.4798 21.1843 19.4798 18.5005V13.1355H19.4797Z" fill="white"/>
<path d="M23.1304 12.2385V11.679C22.4452 11.68 21.7735 11.4875 21.1922 11.1233C21.7068 11.6887 22.3844 12.0786 23.1304 12.2385ZM19.5199 8.63999C19.5024 8.53994 19.489 8.43923 19.4797 8.33814V8H16.8448V18.5005C16.8405 19.7245 15.8507 20.7157 14.6298 20.7157C14.2714 20.7157 13.933 20.6303 13.6333 20.4786C14.0381 21.0116 14.6771 21.3557 15.3965 21.3557C16.6171 21.3557 17.6072 20.3646 17.6115 19.1405V8.63999H19.5199ZM15.3022 14.2823V13.6866C15.082 13.6564 14.86 13.6412 14.6378 13.6413C11.9634 13.6413 9.79541 15.8169 9.79541 18.5005C9.79541 20.183 10.6475 21.6658 11.9422 22.538C11.0882 21.662 10.5621 20.463 10.5621 19.1404C10.5621 16.491 12.6749 14.3367 15.3022 14.2823Z" fill="white"/>
</svg>
